<svg xmlns="http://www.w3.org/2000/svg" viewBox="0 0 215.31 73.22"><title>アセット 1</title><g id="レイヤー_2" data-name="レイヤー 2"><g id="レイヤー_1-2" data-name="レイヤー 1"><path d="M.21,73.22a10.48,10.48,0,0,1,1.19-7.5,6.44,6.44,0,0,1,3.94-2.88c2.69-.72,5.41-1.32,8.1-2,2.05-.53,4-1.2,5.23-3.18A9.71,9.71,0,0,0,20,51.5a13.1,13.1,0,0,0-3.38-7.45A10,10,0,0,0,9.2,40.73a21.76,21.76,0,0,0-4.53.84,5.18,5.18,0,0,1,.47-3.64c1.72-3.29,4.71-4.59,8.16-5,1.18-.14,1.14-.8,1.21-1.58a27.12,27.12,0,0,1,.49-4.8,58,58,0,0,1,2.87-7.78,9.36,9.36,0,0,1,2.58-3.28A72.71,72.71,0,0,1,28.08,10C31.24,8,34.61,6.4,37.87,4.61c1.36-.74,2.64-1.61,4-2.34a1.68,1.68,0,0,1,1.36-.16c2.28,1.39,4.39,3,5.55,5.52.58,1.26,1.14,2.53,1.64,3.82.36.89.85.57,1.36.24,1.48-.95,3-1.9,4.44-2.86l7.53-5A8.37,8.37,0,0,0,65.2,2.74c.79-.82,1.46-.58,2.26,0,2.65,1.89,5.34,3.75,8,5.6a1.23,1.23,0,0,0,1.84-.23,6.88,6.88,0,0,1,2.09-1.49,1.57,1.57,0,0,1,1.37.27c.42.33.4.78,0,1.35a13.39,13.39,0,0,0-3.07,8.39c0,3.53-.16,7.06-.2,10.59,0,1.89.13,3.78.14,5.67,0,2.73-.07,5.47-.06,8.21,0,2.93.06,5.86.14,8.79,0,2.06.13,4.11.27,6.17a1.8,1.8,0,0,0,2.85,1.48,2.33,2.33,0,0,1,1.48-.32c1,.23,1.13.93.4,1.63-2.5,2.39-5,4.77-7.56,7.08a1.72,1.72,0,0,1-1.48.11,8.39,8.39,0,0,1-3.71-3c-1.55-2.22-1.94-4.68-2.36-7.29-.84-5.29-.15-10.57-.39-15.84-.08-2,.2-4.1.2-6.15,0-2.23-.2-4.47-.19-6.7,0-3.75.12-7.5.23-11.25a3.09,3.09,0,0,0-1.49-2.9c-1.34-.92-2.53-2-3.85-3-.42-.31-1.12-.64-1.51-.49-.79.3-1.65.61-1.63,1.89.08,5.77,0,11.55,0,17.33,0,1,.39,1.34,1.34,1.29s2.21,0,3.63,0c-.66,1.05-1.11,1.85-1.64,2.6-1,1.4-2.07,2.76-3.05,4.18A2.1,2.1,0,0,0,59,37.82q0,6.91,0,13.84c0,1.51.11,1.56,1.45.82a5.71,5.71,0,0,1,1-.34c1.15.9.8,1.56-.12,2.37-4,3.46-7.91,7-11.86,10.49-1.52,1.34-1.75,1.16-3.51-.68s-4-3.66-6-5.47c-.26-.24-.6-.39-.84-.65-1.32-1.42-1.28-1.39,0-2.79A4.69,4.69,0,0,0,40.53,52c-.05-2.15.2-4.31.16-6.47,0-2.55-.22-5.1-.46-7.65a1.56,1.56,0,0,0-1-1.09c-1.07-.09-2.16.15-3.24.15a29.82,29.82,0,0,1-3.89-.2c-1.41-.19-2,.14-2,1.54,0,2.82,0,5.64,0,8.46-.06,4,.08,8-.29,12a12.23,12.23,0,0,1-5.38,9.32,21,21,0,0,1-6.75,2.42c-1.1.26-2.39-.37-3.61-.51-2.27-.27-4.59-.28-6.81-.77-2.55-.56-4.12.66-5.6,2.35C1.15,72.05.75,72.57.21,73.22Zm30-39.54.36,0a12,12,0,0,0,1.69-2.1,3.28,3.28,0,0,1,3.79-2c.62.08,1.24.1,1.85.18,1.53.2,2.53-.29,2.54-1.29,0-5.09.05-10.18,0-15.26,0-1.38-.25-2.69-1.92-3.37-2.32-.95-3.66-.9-5.07.68a13.67,13.67,0,0,0-3.06,5.95A20.74,20.74,0,0,0,30,20.65c-.1,3.05-.21,6.11-.21,9.16A36.32,36.32,0,0,0,30.24,33.68ZM28.51,14.29c-.89-.63-1.35.23-1.78.79a13,13,0,0,0-2.67,8.15c0,4.87,0,9.74,0,14.61s.06,9.64,0,14.46a9.69,9.69,0,0,1-3,7.06,14.34,14.34,0,0,0-1.4,1.77,12.73,12.73,0,0,0,2.31.5c3.11.08,4.64-.94,5.57-4A15.4,15.4,0,0,0,28,53.54c.07-2.83.05-5.67,0-8.51-.05-3.69-.2-7.38-.23-11.07,0-5.27-.05-10.55,0-15.82A23.34,23.34,0,0,1,28.51,14.29Zm22,32c0,2.66-.11,5.33.06,8a4.26,4.26,0,0,0,1.27,2.62,2.51,2.51,0,0,0,2.33.43c1.27-.77,2.75-1.64,2.77-3.47,0-1.31-.18-2.63-.18-3.94s.19-2.91.18-4.36c0-2.32-.18-4.64-.22-7A1.68,1.68,0,0,0,54.16,37a1.25,1.25,0,0,1-.87-.05,1.85,1.85,0,0,0-2.79,1.8C50.49,41.24,50.5,43.78,50.5,46.31Zm5.93-34.19c-.29.15-.67.31-1,.51a23.54,23.54,0,0,0-2.88,1.68c-.87.66-2,1.15-2,2.58,0,3.9,0,7.8,0,11.69,0,.78.33,1.16,1.11,1.16h4.92c0-1.48,0-2.92,0-4.35s-.07-2.93,0-4.39c0-1.16.28-2.31.26-3.47C56.74,15.8,56.56,14.08,56.43,12.12Z"/><path d="M213.37,22.88c-.76,1.67-1.62,3.3-2.25,5a11.11,11.11,0,0,0-.69,3.6c-.06,7.52,0,15,0,22.57A7.14,7.14,0,0,0,210.8,57c.68,1.42,1.28,1.49,2.75.92a1.25,1.25,0,0,1,1.73.73c.13.29-.2.93-.51,1.21-1.94,1.77-3.94,3.46-5.9,5.2-1.45,1.29-2.94,1.11-4-.57-.77-1.22-1.56-2.43-2.21-3.71a13.34,13.34,0,0,1-.56-2.24c-.19-.63-.3-1.47-.75-1.81s-1.1.18-1.63.67c-2.27,2.07-4.64,4-6.95,6.05A24,24,0,0,0,191,65.28c-1.25,1.31-2.81,1-3.72-.54a32.83,32.83,0,0,0-2.4-3.46,11.37,11.37,0,0,1-1.74-3.77,14.18,14.18,0,0,1-.91-5.18,12.86,12.86,0,0,1,.49-2.26,27.59,27.59,0,0,1,1.14-4A22.23,22.23,0,0,1,186,42.23c1.27-1.79,2.66-3.5,4-5.24a3.49,3.49,0,0,0,.49-3.65c-1.1-2.81-2.2-5.61-3.27-8.43a4.78,4.78,0,0,1-.12-1.29l4.76-.71a7,7,0,0,0,4.25-2.31,2.14,2.14,0,0,1,2.84-.74c3.34,1.44,6.8,2.59,10.21,3.85a2,2,0,0,0,2.47-.49c.32-.37,1-.46,1.44-.68Zm-23.1,23.87a10.85,10.85,0,0,0,.94,6.58,41.89,41.89,0,0,0,2.86,4.55c.61.86,1.4,1,2.19,0a21.77,21.77,0,0,1,2-2c.95-.92,1.9-1.84,2.84-2.78a.7.7,0,0,0,.21-.44c0-1.23,0-2.46,0-3.7,0-1.58,0-3.17.05-4.76,0-1,0-2-1.17-2.61-2-1.07-3.94-2.32-5.91-3.47-1.26-.74-2.13-.35-2.73,1.09A13.17,13.17,0,0,0,190.27,46.75Zm10.78-6.68c.22-1.59.5-2.84.54-4.09,0-1.77-.53-3.54,0-5.33.05-.19-.36-.62-.64-.76-1.59-.76-3.19-1.5-4.81-2.18-2-.83-4-1.61-6.4-2.55a18,18,0,0,0,.44,2.69c.71,2.13,1.47,4.24,2.31,6.32a3.89,3.89,0,0,0,1.34,1.9C196.08,37.46,198.47,38.67,201.05,40.07Z"/><path d="M118.58,22.61a10.73,10.73,0,0,1-.74,2,12.63,12.63,0,0,0-2.1,6.92c.05,3.93-.09,7.86-.12,11.78,0,2.66-.17,5.34,0,8,.16,2-.42,4,.67,5.9.65,1.14,1.13,1.36,2.31.75.53-.28,1.08-.61,1.62.15s.18,1.13-.32,1.57c-1.45,1.26-3,2.46-4.32,3.81a26.38,26.38,0,0,0-2.28,2.94,9.05,9.05,0,0,1-5.25-5.64,8.1,8.1,0,0,1-.81-4c.1-.72-.29-.9-.9-.38-2.15,1.82-4.33,3.61-6.49,5.44-1.5,1.27-3,2.6-4.45,3.88a1.29,1.29,0,0,1-2.1-.3A55.54,55.54,0,0,1,90,60.9a15.36,15.36,0,0,1-1.61-4.11,24.68,24.68,0,0,1-.72-5.27c0-1.08.63-2.15.83-3.26A17.05,17.05,0,0,1,92,41.31c1.38-1.89,2.88-3.67,4.22-5.58a2.1,2.1,0,0,0,0-1.65c-.81-2.23-1.74-4.43-2.57-6.66-.51-1.38-.91-2.81-1.39-4.33a21.15,21.15,0,0,1,3.07-.15c2.68.27,4.69-1,6.48-2.73a1.88,1.88,0,0,1,2.37-.47c2.53,1.05,5.1,2,7.66,2.93a25.14,25.14,0,0,0,3.06.94c.55.13,1.12.31,1.6-.46.27-.43,1.14-.5,1.74-.73ZM95.32,46.43c.11,1.11.19,2.22.35,3.31a15.71,15.71,0,0,0,3.42,7.61c1.12,1.38,1.53,1.36,2.73.06a14.51,14.51,0,0,1,1.36-1.23c.85-.71,1.78-1.33,2.55-2.11a5.18,5.18,0,0,0,1.48-2.16,14.1,14.1,0,0,0,.06-3.38c0-1.47-.19-3-.12-4.42a2.9,2.9,0,0,0-1.54-2.92c-2.16-1.16-4.31-2.36-6.46-3.54-.63-.35-1-.42-1.56.36A15.63,15.63,0,0,0,95.32,46.43Zm11.54-16.71L94.94,24.85a31.63,31.63,0,0,0,.68,3.37c.63,2,1.34,3.94,2.1,5.87a3.47,3.47,0,0,0,1.13,1.71c2.23,1.33,4.56,2.52,6.85,3.76.88.48,1.31.31,1.36-.7,0-.6-.19-1.21-.19-1.82C106.84,34.58,106.86,32.12,106.86,29.72Z"/><path d="M165.73,66.15a8.46,8.46,0,0,1-1.62-.71,27.54,27.54,0,0,0-6.27-3.16,20.18,20.18,0,0,0-3.8-.88c-1-.18-1.21-.61-.49-1.28,1.55-1.45,1.67-3.24,1.64-5.21-.07-4.38,0-8.75,0-13.13,0-2.35.18-4.69.22-7s.06-4.6,0-6.9c0-.82.49-1.05,1-1.37,2-1.23,3.94-2.47,5.93-3.67,1.67-1,3.35-2,5.08-2.87a1.44,1.44,0,0,1,1.33.22c3.13,3.44,6.2,6.93,9.3,10.4a6.68,6.68,0,0,0,.55.5c1.51,1.33,1.44,1.77-.15,3-2.31,1.78-4.56,3.64-6.86,5.45-2,1.59-4.06,3.17-6.13,4.71a3.51,3.51,0,0,0-1.4,3.31c.09,2.12,0,4.25-.05,6.37,0,1,0,1.74,1.19,2.19,1.93.74,3.77,1.74,5.69,2.52a2,2,0,0,0,1.48-.27c1.45-.89,2.8-2,4.28-2.79.35-.2,1,.22,1.59.35-.13.41-.13,1-.4,1.2-1,.89-2.14,1.66-3.21,2.48l-6.86,5.18C167.12,65.25,166.4,65.7,165.73,66.15Zm-1.8-39.09a5.83,5.83,0,0,0-.14.85c0,2.29,0,4.59,0,6.88V41c0,.63.17,1.23.9.69,2-1.44,3.91-2.91,5.74-4.5s1.67-1.89.12-3.57c-1.14-1.24-2.27-2.5-3.47-3.69C166.08,29,165.05,28.09,163.93,27.06Z"/><path d="M136.59,66.11A38.24,38.24,0,0,0,125.08,59c.27-1.81,2-2.66,1.78-4.49-.09-.75.49-1.54.6-2.34a18.28,18.28,0,0,0,0-2.77c0-1.25-.13-2.49-.17-3.74s0-2.36-.06-3.55c-.07-2.43-.16-4.86-.21-7.29,0-1.42.12-2.86,0-4.26A7.47,7.47,0,0,0,125.94,28c-.06-.11-.76.14-1.16.22a5.52,5.52,0,0,1-1.15.22c-.28-.65-1.55-1.08-.56-2.05,1.88-1.82,3.74-3.66,5.66-5.43.63-.59,1.51-1.51,2.09-1.39a4.91,4.91,0,0,1,2.71,1.76A20.6,20.6,0,0,1,136,25.75c.36.84.51.9,1.14.32,2-1.81,4-3.59,6-5.37.4-.36.87-.62,1.3-.94s1-.24,1.36.25c1.65,2,3.36,4,5,6.08.25.31.33,1.16.11,1.36-1.66,1.58-3.44,3-5.12,4.57-.57.53-1,.49-1.47,0-1.29-1.41-2.62-2.8-3.83-4.28-.53-.65-1-.67-1.53-.21a19.13,19.13,0,0,0-2,1.63,2.3,2.3,0,0,0-.61,1.35c-.12,3-.23,6-.22,8.94,0,3.51.12,7,.18,10.53,0,1.56,0,3.11,0,4.66a1.81,1.81,0,0,0,.57,1.12A39.6,39.6,0,0,0,140,58.29a1.37,1.37,0,0,0,2-.08c.4-.41.69-1.52,1.73-1s1,1.33.13,2.13-1.69,1.53-2.53,2.3Z"/><path d="M102.59,1.73a.93.93,0,0,0,.34-.13.45.45,0,0,1,.27-.1,2.46,2.46,0,0,1,.92.43c.25.18.36.32.36.46a.44.44,0,0,1-.21.33.71.71,0,0,0-.31.44,15.37,15.37,0,0,1-1.93,4,9.09,9.09,0,0,1-2.88,2.74c-.19.11-.29.19-.37.19s-.13,0-.13-.08a.35.35,0,0,1,.14-.21,11.55,11.55,0,0,0,2.57-3.29,17.87,17.87,0,0,0,1.45-3.67,1.65,1.65,0,0,0,.08-.43s0-.05-.07-.05h-.22c-1.26.05-2.5.12-4,.27.06,1.17.12,2,.13,2.63a.5.5,0,0,1-.5.53.52.52,0,0,1-.44-.17A1.17,1.17,0,0,1,97.63,5a15.78,15.78,0,0,0-.15-2.47A1,1,0,0,0,97,1.78c-.11-.07-.17-.08-.17-.17s.33-.16.48-.16A2.12,2.12,0,0,1,98.47,2C100,1.93,101.4,1.83,102.59,1.73Z"/><path d="M108.28,7.46c-.13.07-.2.13-.26.13s-.13-.06-.13-.15.06-.11.19-.21a25.89,25.89,0,0,0,3.68-3.52,11.94,11.94,0,0,0,1.37-1.82c.14-.25.19-.34.19-.48s-.15-.25-.38-.39-.21-.09-.21-.16.2-.26.48-.26a2.59,2.59,0,0,1,1.22.46.9.9,0,0,1,.49.63c0,.18-.11.32-.37.41a.49.49,0,0,0-.25.16L112.69,4c.43.31.73.55.73.78a.38.38,0,0,1,0,.22,1.67,1.67,0,0,0,0,.39V7.06c0,.86,0,1.73,0,2.6a.45.45,0,0,1-.43.51.57.57,0,0,1-.52-.24,1.23,1.23,0,0,1-.24-.74.63.63,0,0,1,.06-.27,4.49,4.49,0,0,0,.11-1.08c0-.83,0-1.95,0-2.65a1.91,1.91,0,0,0-.08-.75A16.34,16.34,0,0,1,108.28,7.46Z"/><path d="M120.25,2.5s0-.09.12-.09h.22a4.26,4.26,0,0,1,1.45.46,1.38,1.38,0,0,1,.8,1.15.61.61,0,0,1-.62.64.6.6,0,0,1-.57-.42,4.09,4.09,0,0,0-.48-.83,2.94,2.94,0,0,0-.84-.8S120.25,2.55,120.25,2.5Zm1.68,5.22a22,22,0,0,0,3.18-2.25,24.25,24.25,0,0,0,2.7-2.81c.06-.06.11-.1.15-.1a.1.1,0,0,1,.11.1.37.37,0,0,1-.07.2,14.73,14.73,0,0,1-2.38,3.21,25.93,25.93,0,0,1-3.07,2.69,1.68,1.68,0,0,0-.3.28.57.57,0,0,1-.46.27c-.24,0-.39-.1-.7-.43-.49-.53-.64-.83-.64-1.07s.08-.44.18-.44.09,0,.19.15c.25.27.41.43.52.43A1.55,1.55,0,0,0,121.93,7.72Z"/><path d="M139.45,4.48c0,1.31.05,2,.05,2.2a.41.41,0,0,1,0,.11c.07-.1.14-.19.2-.29,1,.59,1.12.69,1.12.85s-.09.17-.51.13a10.85,10.85,0,0,1-2.18,1.06,2.94,2.94,0,0,0,.46.25,8.5,8.5,0,0,0,3.22.72s.06.11,0,.12a.91.91,0,0,0-.75.77c-.06.21-.15.29-.3.29a2.14,2.14,0,0,1-.48-.1,9.59,9.59,0,0,1-1.67-.73,5.75,5.75,0,0,1-2.5-3h-1.54V9.3c.81-.14,1.67-.33,2.45-.54.06,0,.09.08,0,.12a19,19,0,0,1-3.95,1.7c-.09.25-.15.32-.26.32s-.26-.29-.59-1.35c.35,0,.78,0,1.27-.1v-3c0-.87,0-1.75,0-2.63a15.61,15.61,0,0,1-2.09.95c-.05,0-.11-.12-.07-.15a13.48,13.48,0,0,0,3.63-3A4.78,4.78,0,0,0,135.85,0c1.33.39,1.55.51,1.55.64s-.15.2-.47.23A7,7,0,0,0,139,2.54a10.34,10.34,0,0,0,3.28,1s0,.12,0,.13c-.36.05-.53.23-.71.81,0,.19-.1.25-.2.25a1.85,1.85,0,0,1-.52-.17c-.31-.15-.72-.38-1.13-.62a1.4,1.4,0,0,1-.24.17Zm-1.09-.9c.16-.15.28-.24.36-.31A7.32,7.32,0,0,1,136.77,1,10.57,10.57,0,0,1,134.2,3.4l.42.18h1.31V3.05a7.72,7.72,0,0,0-.06-.83c1.31.11,1.42.21,1.42.32s-.11.18-.34.31v.73Zm0,.27h-3.84V5.09h3.84Zm0,1.5h-3.84V6.64h3.84Zm-2,1.55a5.63,5.63,0,0,0,1.48,1.48,12.59,12.59,0,0,0,1.21-1.1l.19-.21a.8.8,0,0,1-.37.06c-.3,0-.42-.06-.47-.23Z"/><path d="M149.25,2.62V1.1a9.54,9.54,0,0,0,0-1c1.36.12,1.5.25,1.5.36s-.13.18-.42.29V2.62h.91a11.93,11.93,0,0,0,.59-1.08,9.25,9.25,0,0,0,.39-1.06c1,.34,1.35.53,1.35.73s-.13.2-.5.21a7.24,7.24,0,0,1-1.37,1.2h1.77c.47-.5.56-.56.65-.56s.21.06.78.56c.27.23.34.31.34.4s-.11.24-.45.24a.4.4,0,0,0-.32.09,4.84,4.84,0,0,1-1.08.7s-.14,0-.12-.09a6,6,0,0,0,.3-1.08h-7.37c0,1-.38,1.6-.93,1.6a.57.57,0,0,1-.6-.6.55.55,0,0,1,.37-.56,1.29,1.29,0,0,0,.89-1.24c0-.06.11-.06.12,0a2.16,2.16,0,0,1,.11.54Zm1,5.38h1.87c.54-.63.68-.72.76-.72s.23.09.74.51c.23.18.32.28.32.36s0,.12-.15.12h-3.54V10h2.81c.64-.69.77-.78.85-.78s.23.09.77.54c.25.2.34.31.34.39s0,.11-.15.11h-9.28a4.35,4.35,0,0,0-.75.07l-.12-.43a3.87,3.87,0,0,0,.83.1h3.61V8.27h-2.55a3.64,3.64,0,0,0-.68.07l-.12-.43a3.16,3.16,0,0,0,.75.09h2.6V6.42h-1.3c0,.31-.15.48-.58.48s-.45-.12-.45-.33,0-.56,0-2c0-.34,0-.68,0-1a8.44,8.44,0,0,1,1.12.54h3.62c.38-.42.47-.49.56-.49s.22.07.62.39c.19.15.26.23.26.32s-.08.17-.32.31V5c0,.79,0,1.32,0,1.5s-.21.43-.59.43-.44-.09-.44-.39V6.42h-1.43ZM147.7,2.4c-.31,0-.4-.14-.54-.73a2.3,2.3,0,0,0-.52-1.06.06.06,0,0,1,.06-.09c1.08.28,1.59.69,1.59,1.2S148,2.4,147.7,2.4Zm4,2h-3.82V6.16h3.82Z"/><path d="M171.35,4a.29.29,0,0,0,.08-.14s0,0-.11,0l-.58,0c-1.24.11-2.88.32-4.64.62a1.68,1.68,0,0,0-.78.26.61.61,0,0,1-.32.1c-.16,0-.42-.1-.79-.52a1.32,1.32,0,0,1-.41-.82c0-.22.08-.43.16-.43s.08,0,.17.13a2.68,2.68,0,0,0,.37.33.9.9,0,0,0,.63.15c.22,0,.49,0,1,0,1.64-.16,3.33-.3,5.1-.5a.91.91,0,0,0,.38-.11.73.73,0,0,1,.37-.16,1,1,0,0,1,.67.33c.52.44.67.71.67.93s-.24.33-.47.35a1.15,1.15,0,0,0-.6.31,29.89,29.89,0,0,1-2.85,2.06c.59.54.87,1,.87,1.33a.63.63,0,0,1-.65.7c-.28,0-.46-.21-.62-.54a6.9,6.9,0,0,0-2.1-2.56c-.07,0-.11-.09-.11-.17s0-.09.12-.09a1.79,1.79,0,0,1,.52.13,6.64,6.64,0,0,1,1.63.9A19.84,19.84,0,0,0,171.35,4Z"/><path d="M178.17,2.37a1.74,1.74,0,0,0-.39-.26c-.16-.08-.22-.1-.22-.18s.3-.24.51-.24a2.45,2.45,0,0,1,1.22.45c.35.23.41.37.41.5a.52.52,0,0,1-.13.33,1,1,0,0,0-.19.66c0,1.23-.08,2.73-.08,4,0,.07,0,.09.07.1a.3.3,0,0,0,.15,0,18.48,18.48,0,0,0,2.87-1.31,20.39,20.39,0,0,0,2.88-1.93c.14-.11.31-.25.39-.25a.12.12,0,0,1,.1.1.89.89,0,0,1-.23.37,11.2,11.2,0,0,1-2.37,2.11A20.43,20.43,0,0,1,180,8.7c-.3.15-.43.2-.53.33a.39.39,0,0,1-.29.16c-.22,0-.51-.3-.72-.6a1.25,1.25,0,0,1-.23-.63.55.55,0,0,1,.07-.22,1.84,1.84,0,0,0,.06-.47c0-1.32.05-2.76.05-4.22A.78.78,0,0,0,178.17,2.37Z"/><path d="M197,5.9c-.36,0-1.14-.05-1.7-.05-.91,0-2.88,0-4.3.17a2.94,2.94,0,0,0-1.13.22.54.54,0,0,1-.31.09c-.3,0-.57-.28-.92-.79a1,1,0,0,1-.22-.62c0-.19.07-.28.14-.28s.09.05.15.1a1.11,1.11,0,0,0,1,.44c.31,0,.53,0,1.21-.06C192.33,5,193.85,5,195,4.94a2.2,2.2,0,0,0,.9-.16.71.71,0,0,1,.32-.09,1.35,1.35,0,0,1,.52.11c.43.18.73.36.73.64A.44.44,0,0,1,197,5.9Z"/><path d="M208.08,1.48a1,1,0,0,1,.35-.16,1.32,1.32,0,0,1,.79.45c.2.19.5.42.5.73s-.14.3-.44.34a1.42,1.42,0,0,0-.65.28A23.66,23.66,0,0,1,206,4.64a10,10,0,0,1-.71,2.4A6.44,6.44,0,0,1,202.53,10a.88.88,0,0,1-.37.12s-.09,0-.09-.1.05-.09.17-.2a7.87,7.87,0,0,0,2.15-3.07,6.53,6.53,0,0,0,.54-2.5,1,1,0,0,0,0-.39c0-.1-.29-.2-.59-.24-.09,0-.15,0-.15-.1s.08-.16.22-.26a.9.9,0,0,1,.48-.12,3.18,3.18,0,0,1,1.12.17.33.33,0,0,1,.22.3.47.47,0,0,1,0,.17,2,2,0,0,0-.11.47,12.53,12.53,0,0,0,1.84-1.79.21.21,0,0,0,.08-.18c0-.05-.06-.06-.22-.05l-1.8.15c-.73.07-1.47.16-2.15.28a4.48,4.48,0,0,0-1.27.32.85.85,0,0,1-.43.16c-.24,0-.48-.15-.77-.5s-.33-.53-.33-.76.06-.32.13-.32.09,0,.2.13c.35.31.48.39.75.39s.54,0,1-.06c1.48-.12,3-.27,4.46-.38A1.19,1.19,0,0,0,208.08,1.48Z"/></g></g></svg>